<?xml version="1.0" encoding="UTF-8" standalone="no"?>
<svg
   xmlns:dc="http://purl.org/dc/elements/1.1/"
   xmlns:cc="http://creativecommons.org/ns#"
   xmlns:rdf="http://www.w3.org/1999/02/22-rdf-syntax-ns#"
   xmlns:svg="http://www.w3.org/2000/svg"
   xmlns="http://www.w3.org/2000/svg"
   xmlns:sodipodi="http://sodipodi.sourceforge.net/DTD/sodipodi-0.dtd"
   xmlns:inkscape="http://www.inkscape.org/namespaces/inkscape"
   version="1.1"
   x="0px"
   y="0px"
   viewBox="0 0 100 125"
   enable-background="new 0 0 100 100"
   xml:space="preserve"
   id="svg3047"
   inkscape:version="0.48.4 r9939"
   width="100%"
   height="100%"
   sodipodi:docname="Logo_6.svg"
   inkscape:export-filename="/home/edouard/Desktop/Logo_4.png"
   inkscape:export-xdpi="90"
   inkscape:export-ydpi="90"><metadata
     id="metadata3069"><rdf:RDF><cc:Work
         rdf:about=""><dc:format>image/svg+xml</dc:format><dc:type
           rdf:resource="http://purl.org/dc/dcmitype/StillImage" /><dc:title></dc:title></cc:Work></rdf:RDF></metadata><defs
     id="defs3067" /><sodipodi:namedview
     pagecolor="#ffffff"
     bordercolor="#666666"
     borderopacity="1"
     objecttolerance="10"
     gridtolerance="10"
     guidetolerance="10"
     inkscape:pageopacity="0"
     inkscape:pageshadow="2"
     inkscape:window-width="1855"
     inkscape:window-height="1056"
     id="namedview3065"
     showgrid="false"
     inkscape:zoom="7.272"
     inkscape:cx="50"
     inkscape:cy="51.4989"
     inkscape:window-x="65"
     inkscape:window-y="24"
     inkscape:window-maximized="1"
     inkscape:current-layer="svg3047"
     showguides="true"
     inkscape:guide-bbox="true"><sodipodi:guide
       orientation="0,1"
       position="16.364136,62.568757"
       id="guide3929" /></sodipodi:namedview><g
     id="g3049"
     style="fill:#ffffff;fill-opacity:1"
     transform="matrix(0.94959117,0,0,0.95648617,2.314952,13.165273)"><g
       id="g3051"
       style="opacity:0.90000000000000002;fill:#ffffff;fill-opacity:1"><path
         d="m 55.742,51.498 c 0,10.351 8.391,18.741 18.742,18.741 10.35,0 18.742,-8.39 18.742,-18.741 0,-2.235 0,-18.742 0,-18.742 0,0 -15.788,0 -18.742,0 -10.352,0 -18.742,8.391 -18.742,18.742 z"
         id="path3053"
         style="fill:#ffffff;fill-opacity:1"
         inkscape:connector-curvature="0" /></g><g
       id="g3055"
       style="opacity:0.90000000000000002;fill:#ffffff;fill-opacity:1"><path
         d="m 44.288,51.498 c 0,10.351 -8.391,18.741 -18.742,18.741 -10.351,0 -18.742,-8.39 -18.742,-18.741 0,-2.235 0,-18.742 0,-18.742 0,0 15.788,0 18.742,0 10.35,0 18.742,8.391 18.742,18.742 z"
         id="path3057"
         style="fill:#ffffff;fill-opacity:1"
         inkscape:connector-curvature="0" /></g><path
       d="M 93.226,30.956 H 74.484 c -8.797,0 -16.298,5.569 -19.22,13.358 H 44.765 C 41.844,36.525 34.342,30.956 25.545,30.956 H 6.804 c -0.994,0 -1.8,0.806 -1.8,1.8 v 18.742 c 0,11.326 9.215,20.541 20.542,20.541 11.327,0 20.542,-9.215 20.542,-20.541 0,-0.84 -0.066,-1.664 -0.165,-2.479 h 8.185 c -0.099,0.814 -0.165,1.638 -0.165,2.479 0,11.326 9.214,20.541 20.542,20.541 11.328,0 20.542,-9.215 20.542,-20.541 V 32.756 c -0.001,-0.994 -0.807,-1.8 -1.801,-1.8 z M 25.545,68.439 c -9.342,0 -16.942,-7.6 -16.942,-16.941 v -7.424 c 0.134,-1.727 0.685,-5.066 2.93,-6.749 2.477,-1.857 4.295,-2.528 5.368,-2.77 h 8.644 c 9.342,0 16.942,7.601 16.942,16.943 0,9.342 -7.599,16.941 -16.942,16.941 z M 91.426,51.498 c 0,9.342 -7.6,16.941 -16.942,16.941 -9.342,0 -16.943,-7.6 -16.943,-16.941 0,-9.341 7.601,-16.943 16.943,-16.943 h 8.645 c 1.072,0.242 2.89,0.913 5.368,2.77 3.108,2.33 2.856,7.841 2.856,7.844 l 0.074,-1.133 v 7.462 z"
       id="path3059"
       style="fill:#ffffff;fill-opacity:1"
       inkscape:connector-curvature="0" /></g><path
     sodipodi:type="arc"
     style="fill:#2b0000"
     id="path3147"
     sodipodi:cx="89.727722"
     sodipodi:cy="38.022552"
     sodipodi:rx="0.068756878"
     sodipodi:ry="0.75632566"
     d="m 89.796479,38.022552 a 0.06875688,0.75632566 0 0 1 -1e-6,0.0044 l -0.06876,-0.0044 z"
     sodipodi:start="0"
     sodipodi:end="0.0057876307"
     transform="translate(0,6.6006669)" /><path
     style="fill:#3f72af;fill-opacity:1"
     d="M 70.215129,78.344624 C 64.473564,77.250376 59.676412,73.088859 57.853962,67.621344 56.703947,64.171191 56.754874,60.150505 57.99067,56.828322 c 1.496737,-4.023672 4.71647,-7.495818 8.468277,-9.132157 2.906466,-1.267645 3.455873,-1.349243 9.564429,-1.420501 5.845861,-0.06819 5.703823,-0.08629 7.73625,0.985706 2.421216,1.277063 3.597783,2.342118 4.273915,3.868846 0.864942,1.953069 0.925165,2.431721 0.986955,7.84439 0.06169,5.403798 -0.0012,6.120528 -0.744804,8.491897 -1.593602,5.081847 -6.028955,9.250765 -11.315564,10.635825 -1.657959,0.434376 -5.090215,0.55767 -6.744999,0.242296 l 0,0 z"
     id="path3115"
     inkscape:connector-curvature="0" /><path
     style="fill:#3f72af;fill-opacity:1"
     d="m 23.735481,78.344624 c -4.937609,-0.941028 -9.273527,-4.211856 -11.538645,-8.704252 -0.60395,-1.197813 -1.235765,-3.219837 -1.471852,-4.710429 -0.315314,-1.990816 -0.211191,-10.653684 0.143678,-11.953814 0.407839,-1.494191 1.11594,-2.82197 1.927274,-3.61388 0.927161,-0.904965 2.7887,-2.072843 4.246449,-2.664105 l 1.123182,-0.455562 4.631138,-0.0023 c 2.547126,-0.0013 5.115195,0.06109 5.706821,0.138585 5.255641,0.688409 9.626397,3.698017 12.203428,8.403017 2.016381,3.681395 2.447264,8.67097 1.097434,12.708157 -0.79037,2.363908 -2.087339,4.492739 -3.793808,6.227113 -2.190972,2.226805 -4.727293,3.690156 -7.68039,4.431268 -1.523485,0.382335 -5.065205,0.487712 -6.594709,0.196215 z"
     id="path3117"
     inkscape:connector-curvature="0" /></svg>